<?xml version="1.0" encoding="UTF-8" standalone="no"?>
<!-- Generator: Adobe Illustrator 14.0.0, SVG Export Plug-In . SVG Version: 6.00 Build 43363)  -->

<svg
   xmlns:dc="http://purl.org/dc/elements/1.1/"
   xmlns:cc="http://creativecommons.org/ns#"
   xmlns:rdf="http://www.w3.org/1999/02/22-rdf-syntax-ns#"
   xmlns:svg="http://www.w3.org/2000/svg"
   xmlns="http://www.w3.org/2000/svg"
   xmlns:sodipodi="http://sodipodi.sourceforge.net/DTD/sodipodi-0.dtd"
   xmlns:inkscape="http://www.inkscape.org/namespaces/inkscape"
   version="1.1"
   id="Livello_2"
   x="0px"
   y="0px"
   width="690.29102"
   height="614.33398"
   viewBox="0 0 690.29102 614.33398"
   enable-background="new 0 0 1280 800"
   xml:space="preserve"
   inkscape:version="0.91 r13725"
   sodipodi:docname="logo-white.svg"><metadata
     id="metadata3418"><rdf:RDF><cc:Work
         rdf:about=""><dc:format>image/svg+xml</dc:format><dc:type
           rdf:resource="http://purl.org/dc/dcmitype/StillImage" /><dc:title></dc:title></cc:Work></rdf:RDF></metadata><defs
     id="defs3416" /><sodipodi:namedview
     pagecolor="#000000"
     bordercolor="#666666"
     borderopacity="1"
     objecttolerance="10"
     gridtolerance="10"
     guidetolerance="10"
     inkscape:pageopacity="0"
     inkscape:pageshadow="2"
     inkscape:window-width="1920"
     inkscape:window-height="972"
     id="namedview3414"
     showgrid="false"
     fit-margin-top="0"
     fit-margin-left="0"
     fit-margin-right="0"
     fit-margin-bottom="0"
     inkscape:zoom="0.491875"
     inkscape:cx="456.66598"
     inkscape:cy="130.76321"
     inkscape:window-x="0"
     inkscape:window-y="28"
     inkscape:window-maximized="1"
     inkscape:current-layer="Livello_2" /><ellipse
     cx="93.625008"
     cy="71"
     rx="60"
     ry="48"
     id="ellipse3406"
     style="fill:#ffffff" /><path
     d="m 525.958,292.667 c -55.333,0 -89.334,26 -119.334,78.667 -19.334,-6.667 -80.333,-39.083 -100.667,-55 16.333,3.333 21.667,6.333 44.667,6.333 66.667,0 179.667,-54 179.667,-161.333 C 530.291,67 438.594,0 331.624,0 c -54.333,0 -159.09,24.667 -156.5,55.667 19.833,0 45.167,-17.333 101.833,-17.333 66.667,-0.001 216.667,29.166 216.667,137.999 0,53.917 -70.693,100.333 -139.666,100.333 -41,0 -84.667,-18.333 -117.667,-39.667 -9.333,0 -31.667,7.333 -31.667,25.333 0,36.333 96.001,120.167 190.667,153 -8.333,128 87.334,199.001 162,199.001 87.334,0 133,-71.668 133,-141.667 0,-74.666 -60.666,-179.999 -164.333,-179.999 z M 558.124,591.5 c -84.335,0 -150.296,-87.771 -141,-167 84.5,34 103.424,29.401 124.712,29.401 21.288,0 45.977,-1.488 45.977,-21.178 0,-14.365 -10.401,-19.157 -15.853,-19.157 -2.515,0 -12.362,2.434 -22.836,2.434 -32.887,0 -106.546,-26.859 -122.666,-34.42 25.757,-51.392 64.833,-66.58 99.166,-66.58 40.5,0 143,43.5 143,156 0,83.5 -58.5,120.5 -110.5,120.5 z"
     id="path3408"
     inkscape:connector-curvature="0"
     style="fill:#ffffff" /><path
     d="M 131.973,292.666 C 76.64,292.666 0,325 0,438.75 0,547 88.64,614.334 163.306,614.334 c 87.334,0 133,-71.668 133,-141.668 0,-74.666 -60.666,-180 -164.333,-180 z M 164.139,591.5 c -84.335,0 -152.144,-86.938 -142.848,-166.167 4.801,-31.845 1.667,-23 11.182,-43.753 C 58.229,330.188 97.306,315 131.639,315 c 40.5,0 143,43.5 143,156 0,83.5 -58.5,120.5 -110.5,120.5 z"
     id="path3410"
     inkscape:connector-curvature="0"
     style="fill:#ffffff" /><path
     d="m 242.624,57.188 c -57,233.356 -38.499,156 -66.083,273.333 -5.682,24.169 -3.872,44.973 -5.792,60.917 -7.442,61.817 1.146,67.234 -19.125,69.75 -17.863,2.217 -7.121,-113.65 -4.819,-140.5 2.301,-26.849 17.229,-132.189 30.319,-171.5 13.09,-39.311 31.5,-73 41,-81.5 9.5,-8.5 24.5,-10.5 24.5,-10.5 z"
     id="path3412"
     inkscape:connector-curvature="0"
     style="fill:#ffffff" /></svg>