<?xml version="1.0" encoding="utf-8"?>
<!-- Generator: Adobe Illustrator 14.0.0, SVG Export Plug-In . SVG Version: 6.00 Build 43363)  -->
<!DOCTYPE svg PUBLIC "-//W3C//DTD SVG 1.1//EN" "http://www.w3.org/Graphics/SVG/1.1/DTD/svg11.dtd">
<svg version="1.1" id="Livello_2" xmlns="http://www.w3.org/2000/svg" xmlns:xlink="http://www.w3.org/1999/xlink" x="0px" y="0px"
	 width="1280px" height="800px" viewBox="0 0 1280 800" enable-background="new 0 0 1280 800" xml:space="preserve">
<ellipse cx="381.001" cy="137" rx="60" ry="48"/>
<path d="M813.334,358.667c-55.333,0-89.334,26-119.334,78.667c-19.334-6.667-80.333-39.083-100.667-55
	c16.333,3.333,21.667,6.333,44.667,6.333c66.667,0,179.667-54,179.667-161.333C817.667,133,725.97,66,619,66
	c-54.333,0-159.09,24.667-156.5,55.667c19.833,0,45.167-17.333,101.833-17.333C631,104.333,781,133.5,781,242.333
	c0,53.917-70.693,100.333-139.666,100.333c-41,0-84.667-18.333-117.667-39.667c-9.333,0-31.667,7.333-31.667,25.333
	c0,36.333,96.001,120.167,190.667,153c-8.333,128,87.334,199.001,162,199.001c87.334,0,133-71.668,133-141.667
	C977.667,464,917.001,358.667,813.334,358.667z M845.5,657.5c-84.335,0-150.296-87.771-141-167
	c84.5,34,103.424,29.401,124.712,29.401s45.977-1.488,45.977-21.178c0-14.365-10.401-19.157-15.853-19.157
	c-2.515,0-12.362,2.434-22.836,2.434c-32.887,0-106.546-26.859-122.666-34.42C739.591,396.188,778.667,381,813,381
	c40.5,0,143,43.5,143,156C956,620.5,897.5,657.5,845.5,657.5z"/>
<path d="M419.349,358.666c-55.333,0-131.973,32.334-131.973,146.084c0,108.25,88.64,175.584,163.306,175.584
	c87.334,0,133-71.668,133-141.668C583.682,464,523.016,358.666,419.349,358.666z M451.515,657.5
	c-84.335,0-152.144-86.938-142.848-166.167c4.801-31.845,1.667-23,11.182-43.753C345.605,396.188,384.682,381,419.015,381
	c40.5,0,143,43.5,143,156C562.015,620.5,503.515,657.5,451.515,657.5z"/>
<path d="M530,123.188c-57,233.356-38.499,156-66.083,273.333c-5.682,24.169-3.872,44.973-5.792,60.917
	c-7.442,61.817,1.146,67.234-19.125,69.75c-17.863,2.217-7.121-113.65-4.819-140.5c2.301-26.849,17.229-132.189,30.319-171.5
	s31.5-73,41-81.5S530,123.188,530,123.188z"/>
</svg>
